<?xml version="1.0" encoding="utf-8"?>
<!-- Generator: Adobe Illustrator 28.3.0, SVG Export Plug-In . SVG Version: 6.00 Build 0)  -->
<svg version="1.1" id="Layer_2_00000001658022751664686460000003528002604335152769_"
	 xmlns="http://www.w3.org/2000/svg" xmlns:xlink="http://www.w3.org/1999/xlink" x="0px" y="0px" viewBox="0 0 340 331.3"
	 style="enable-background:new 0 0 340 331.3;" xml:space="preserve">
<style type="text/css">
	.st0{fill:#FFFFFF;}
</style>
<path class="st0" d="M279.2,0H60.3c-33.1,0-60,26.8-60,60v210.3v0c0,33.1,26.9,60,60,60h218.9h0c33.1,0,60-26.8,60-60V60
	C339.2,26.8,312.3,0,279.2,0z M277.8,137h-46.4v-3.1c0-6.6-3.8-12.6-9.7-15.5L177,96.7c-4.7-2.3-10.3-2.3-15,0l-51.2,25.1
	c-1,0.5-1,1.8-0.2,2.4c0.1,0.1,0.3,0.1,0.4,0.2l-0.5-0.1L265,164.7c7.6,2,12.8,8.8,12.8,16.6v6.8v27.6c0,0.5,0,1,0,1.5
	c-0.5,10.9-7,20.8-17,25.6l-78.3,37.8c-8.3,4-17.9,4-26.1,0l-78.3-37.8c-10.4-5-17-15.5-17-27.1v-25.1h46.4v2.8
	c0,6.6,3.8,12.6,9.7,15.5l44.8,21.6c4.7,2.3,10.2,2.3,14.9,0l50.8-24.1c1.2-0.5,1-2.3-0.2-2.6L73.9,163.8c-7.6-2-12.8-8.8-12.8-16.6
	v-7.7v-27.8c0-0.2,0-0.3,0-0.5c0.2-11.3,6.7-21.6,16.9-26.6l78.3-38.1c8.3-4,18-4,26.3,0l78.3,38.1c10.3,5,16.9,15.5,16.9,27V137z"
	/>
</svg>
